<svg  viewBox="0 0 7 5" fill="none" xmlns="http://www.w3.org/2000/svg">
<path d="M3.73148 4.04669L3.73155 4.04664L6.49905 1.47736L6.49908 1.47733C6.65372 1.33368 6.65339 1.09606 6.49833 0.952761L6.49829 0.952728C6.34978 0.815566 6.11368 0.815927 5.96556 0.953424L5.96556 0.953427L3.46483 3.27503L0.964119 0.953342L0.9641 0.953324C0.815978 0.815856 0.579993 0.815494 0.431467 0.952628L0.431417 0.952674C0.355306 1.02301 0.314844 1.11805 0.314844 1.21534C0.314844 1.31235 0.35503 1.40706 0.430665 1.47732L0.430696 1.47735L3.198 4.04652C3.19804 4.04655 3.19807 4.04658 3.19811 4.04662C3.27065 4.11407 3.36689 4.15 3.46483 4.15C3.56299 4.15 3.65905 4.11386 3.73148 4.04669Z" fill="#152B5A" stroke="#162C5B" stroke-width="0.3"/>
</svg>
