<svg width="35" height="35" viewBox="0 0 35 35" fill="none" xmlns="http://www.w3.org/2000/svg">
<path fill-rule="evenodd" clip-rule="evenodd" d="M7.66365 20.4048L0.680227 23.946C-0.240583 24.4129 -0.222699 25.7189 0.710561 26.1611L17.0229 33.8897C17.3825 34.0601 17.8028 34.0511 18.1546 33.8655L33.6688 25.6799C34.561 25.2092 34.5491 23.942 33.6482 23.4877L31.8325 22.5722L25.9282 25.4752L17.4415 29.9529L6.9173 24.9667L10.6761 23.0607L7.66365 20.4048Z" fill="#162C5B"/>
<path fill-rule="evenodd" clip-rule="evenodd" d="M7.66365 12.6001L0.680227 16.1413C-0.240583 16.6082 -0.222699 17.9142 0.710561 18.3564L17.0229 26.085C17.3825 26.2554 17.8028 26.2464 18.1546 26.0608L33.6688 17.8752C34.561 17.4045 34.5491 16.1373 33.6482 15.6831L31.8325 14.7675L25.9282 17.6705L17.4415 22.1482L6.9173 17.162L10.6761 15.256L7.66365 12.6001Z" fill="#162C5B"/>
<path fill-rule="evenodd" clip-rule="evenodd" d="M31.8325 7.03859L25.9282 9.9416L17.4415 14.4194L6.9173 9.43313L17.4655 4.08426L21.221 5.97795L25.5287 3.85995L18.1419 0.135251C17.7834 -0.0455353 17.3587 -0.0450582 17.0006 0.136536L0.680227 8.41242C-0.240583 8.87935 -0.222699 10.1853 0.710561 10.6275L17.0229 18.3561C17.3825 18.5265 17.8028 18.5175 18.1546 18.3319L33.6688 10.1463C34.561 9.67558 34.5491 8.40843 33.6482 7.95416L31.8325 7.03859Z" fill="#162C5B"/>
</svg>
